<?xml version="1.0" encoding="UTF-8" standalone="no"?><!DOCTYPE svg PUBLIC "-//W3C//DTD SVG 1.1//EN" "http://www.w3.org/Graphics/SVG/1.1/DTD/svg11.dtd"><svg width="100%" height="100%" viewBox="0 0 480 480" version="1.1" xmlns="http://www.w3.org/2000/svg" xmlns:xlink="http://www.w3.org/1999/xlink" xml:space="preserve" xmlns:serif="http://www.serif.com/" style="fill-rule:evenodd;clip-rule:evenodd;stroke-linejoin:round;stroke-miterlimit:1.41421;"><rect id="milkshake2" x="0" y="0" width="480" height="480" style="fill:none;"/><g><path d="M255.48,321.464c-1.014,5.084 -2.282,10.892 -4.183,17.31c-4.076,13.762 -11.961,23.439 -17.491,29.493c-4.864,5.326 -7.34,12.571 -6.038,16.61c3.596,11.158 17.164,6.205 22.772,1.596c18.894,-15.525 34.69,-26.42 51.409,-29.988c1.849,-0.383 3.708,-0.688 5.57,-0.909c10.998,-1.244 22.57,0.714 35.81,6.607c0.171,0.09 0.342,0.182 0.512,0.275c-3.671,-0.448 -7.12,-0.721 -10.369,-0.832c-44.783,-1.533 -51.483,27.552 -74.74,47.494c-17.786,15.25 -40.958,13.651 -57.199,0.291c-10.402,-8.557 -13.954,-33.57 -4.263,-49.68c15.753,-26.188 24.015,-60.166 8.776,-63.801c-3.404,-0.812 -11.838,10.096 -40.773,18.253c-5.477,1.544 -22.04,6.785 -28.008,12.921c-6.563,6.746 -5.623,27.399 17.964,26.59c10.835,-0.372 26.013,1.454 37.423,5.308c-2.304,4.253 -3.831,8.939 -4.629,13.742c-22.223,-3.448 -27.889,3.756 -47.61,4.138c-22.699,0.44 -41.942,-19.115 -41.756,-37.546c3.679,-1.554 7.021,-3.876 10.057,-6.5c12.843,-11.1 19.682,-27.707 20.159,-44.386c1.918,-1.266 3.961,-2.539 6.252,-3.828c15.303,-8.616 31.865,-16.887 35.258,-23.604c5.52,-10.928 -7.835,-10.21 -15.308,-12.43c-7.473,-2.221 -22.904,-10.652 -31.438,-17.195c-0.078,-0.094 -0.135,-0.149 -0.135,-0.149l-3.191,-2.636c-0.953,-0.864 -1.878,-1.657 -2.774,-2.382c-0.435,-1.915 -0.565,-3.884 -0.63,-5.849c-0.108,-2.917 -0.07,-5.843 -0.056,-8.771c0.029,-6.278 -0.806,-14.729 -4.289,-21.376c4.805,2.027 9.85,4.656 15.64,7.311c0.933,0.428 1.885,0.856 2.858,1.283c2.335,1.035 4.692,2.012 7.083,2.886c3.706,1.388 7.719,2.69 12.124,3.81c20.194,5.134 38.617,-3.953 24.22,-21.538c-13.031,-15.915 -17.817,-33.874 -21.685,-45.708c1.931,-3.57 5.137,-6.248 8.46,-8.596c6.38,-4.506 13.608,-7.806 20.98,-10.69c9.991,15.39 24.568,48.03 37.842,47.734c9.334,-0.209 8.632,-25.135 16.36,-43.858c8.018,-19.424 9.497,-29.016 3.711,-32.901c-13.413,-9.007 -25.548,14.274 -46.868,21.549c-16.691,5.695 -34.338,13.015 -41.655,22.658c-2.738,3.61 -5.346,9.123 -6.679,19.648c-1.851,-7.422 -1.498,-17.745 2.041,-25.505c3.804,-8.344 9.866,-15.841 22.688,-23.288c11.139,-6.47 21.57,-12.588 32.326,-25.789c17.539,-21.524 40.363,-20.615 49.037,-17.712c34.497,11.545 32.703,41.164 28.383,57.682c-2.165,8.275 -4.314,17.702 -5.81,26.456c-2.423,14.172 -3.697,32.763 0.009,35.657c6.631,5.179 14.552,-27.459 61.791,-29.237c34.322,-1.291 8.607,-36.091 -17.582,-23.96c-11.213,5.194 -24.591,8.291 -38.138,8.546c1.087,-5.228 2.313,-10.414 3.638,-15.566c10.206,-2.735 29.243,-15.017 38.136,-17.345c39.62,-10.374 60.977,15.071 65.637,32.514c1.884,7.051 5.03,16.676 -0.111,28.466c-3.95,6.471 -5.69,7.716 -8.88,10.013c-1.219,0.877 -3.013,1.984 -5.13,3.084l-0.1,-0.138c-2.546,-2.351 -4.626,-5.218 -5.676,-8.485c-1.311,-4.08 -0.92,-8.503 0.355,-12.535c1.94,-6.14 5.617,-11.396 9.541,-16.39c0.209,-0.266 0.486,-0.429 0.685,-1.022c0.286,-0.857 -0.308,-1.801 -1.199,-2.054c-0.69,-0.074 -0.497,-0.021 -0.797,0.05l-0.121,0.04c-4.737,1.581 -9.198,4.062 -12.933,7.377c-7.258,6.441 -11.429,16.148 -11.402,25.897c0.013,4.471 1.223,8.809 3.307,12.709c-0.401,0.042 -0.782,0.073 -1.133,0.087c-34.938,1.462 -45.205,22.773 -43.771,29.397c2.52,11.644 21.861,2.416 46.357,29.418c9.165,10.102 27.327,10.61 32.136,1.953c5.718,-10.293 -3.574,-25.324 -9.201,-32.965c-4.472,-6.072 -20.484,-23.924 -23.602,-34.528c-0.163,-0.608 -0.302,-1.22 -0.418,-1.834c-0.028,-0.183 -0.051,-0.362 -0.068,-0.539c-2.273,-22.977 16.112,-31.38 16.112,-31.38c0,0 -14.119,18.296 -4.734,31.989c7.806,11.389 24.534,21.277 38.163,37.484c23.531,27.98 13.42,47.918 5.946,56.494c-16.198,18.586 -39.451,21.671 -75.048,0.323c-3.535,-2.12 -8.023,-4.331 -12.635,-6.016c-2.003,-7.7 -5.11,-15.025 -9.574,-21.519c-7.356,-10.703 -18.196,-19.176 -30.862,-21.863c-7.129,-1.493 -14.471,-3.207 -21.668,-5.06c-0.312,-0.081 -0.003,0.009 -0.003,0.009c6.619,2.216 13.237,4.279 19.917,6.169c2.165,0.611 4.281,1.28 6.34,2.16c10.068,4.306 18.053,12.199 23.501,21.535c7.803,13.371 10.268,28.887 9.213,44.027c-0.73,10.484 -3.834,21.382 -11.413,28.508c-5.16,4.85 -11.832,7.279 -18.574,8.126c-7.207,0.905 -15.484,0.529 -22.845,-2.174c-6.485,-2.38 -11.972,-6.487 -16.036,-11.779c-4.815,-6.269 -7.206,-14.181 -10.397,-21.775c-2.44,-5.807 -4.917,-11.664 -8.957,-16.358c-1.97,-2.288 -4.499,-4.025 -6.842,-5.958c-0.121,-0.1 -0.241,-0.201 -0.361,-0.301c1.466,1.428 3.066,2.71 4.51,4.161c1.509,1.516 2.789,3.245 3.87,5.086c4.427,7.537 6.771,15.953 9.325,24.206c2.599,8.326 7.208,15.769 13.584,21.098Zm69.161,-23.803c0.945,1.502 1.825,3.036 2.62,4.597c11.055,21.706 6.54,42.918 15.459,43.047c11.569,0.168 4.026,-13.484 6.857,-35.027c1.549,-11.783 2.897,-18.907 6.521,-26.133c6.272,2.252 12.92,3.846 19.587,4.223c-1.449,7.031 -2.374,14.925 -1.473,24.388c1.786,18.759 5.963,27.411 1.03,45.129c-5.901,21.195 -31.977,36.889 -56.105,18.545c-2.725,-2.072 -5.841,-6.287 -7.802,-9.151c11.909,-3.491 24.666,-2.717 37.026,-0.996c1.358,0.191 2.515,0.291 3.018,-0.54c0.405,-0.67 0.172,-1.548 -0.396,-2.093c-2.657,-2.551 -5.967,-4.305 -9.354,-5.775c-8.441,-3.664 -17.834,-5.911 -27.177,-5.933c-3.15,-0.001 -6.256,0.305 -9.32,0.784c-2.702,-7.681 -6.753,-15.939 -10.519,-22.633c7.048,-1.383 13.771,-4.345 18.758,-9.254c6.243,-6.144 9.786,-14.543 11.27,-23.178Zm-232.604,-111.046c2.396,0.694 4.571,2.114 6.189,4.025c3.897,4.604 4.426,10.823 3.607,16.616c-0.591,4.182 -0.946,8.589 -0.483,12.713c-5.054,1.503 -6.291,8.084 -3.735,13.963c2.615,6.015 11.573,7.812 19.165,21.39c12.435,22.24 8.532,38.982 7.22,45.411c-0.308,1.512 -0.689,3.006 -1.137,4.478c-0.698,2.211 -1.521,4.38 -2.468,6.492c-3.393,7.403 -8.492,14.057 -14.65,19.447c0,0 -4.528,3.527 -6.997,4.456c3.297,-3.157 13.457,-15.214 16.158,-27.571c0.032,-0.149 2.822,-11.518 1.015,-20.084c-5.884,-27.894 -39.11,-24.148 -51.241,-51.392c-8.39,-18.844 -4.508,-47.789 27.357,-49.944Zm52.884,-61.343c-0.969,-0.193 -2.049,-0.045 -3.278,0.489c-15.724,6.826 -2.665,42.591 -6.659,70.098c-4.429,-1.882 -8.767,-3.984 -13.114,-6.067c-1.2,-13.672 -5.07,-26.697 -8.331,-40.446c-3.155,-13.303 -8.052,-29.997 3.506,-44.157c14.061,-17.227 34.292,-14.619 50.193,-2.504c-4.647,2.804 -9.1,5.976 -12.984,9.747c-3.813,3.703 -6.88,8.109 -9.333,12.84Z" style="fill:#df5a42;"/><g><path d="M225.452,243.467c-4.433,0.676 -5.995,12.142 1.315,15.474c6.198,2.824 7.584,-2.997 7.005,-7.028c-1.011,-7.033 -3.888,-9.122 -8.32,-8.446Zm-0.414,3.437c0.04,-0.619 3.284,-1.048 3.64,-0.543c0.392,0.559 1.988,8.972 1.849,9.735c-0.093,0.506 -3.267,1.079 -3.588,0.518c-0.669,-1.174 -1.981,-8.458 -1.901,-9.71Z" style="fill:#fff;"/></g><path d="M368.391,244.894c-0.414,-4.474 -2.196,-12.005 -9.6,-19.452c10.958,4.174 15.913,14.457 17.919,20.398c-2.808,0.287 -5.68,-0.071 -8.319,-0.946Z" style="fill:#df5a42;fill-opacity:0.9;fill-rule:nonzero;"/><path d="M246.766,358.764c7.978,-3.461 12.727,-8.593 15.812,-11.262c-6.325,15.685 -17.908,20.892 -25.003,23.057c0.123,-0.142 0.245,-0.284 0.368,-0.426c3.154,-3.635 6.225,-7.334 8.823,-11.369Z" style="fill:#df5a42;"/><path d="M112.67,301.93c-1.516,10.243 -6.178,19.976 -12.987,27.827c1.946,-8.946 8.04,-22.011 12.987,-27.827Z" style="fill:#df5a42;"/><path d="M121.031,233.51c-2.325,1.091 -5.442,0.533 -7.206,-0.343c-15.627,-7.758 -6.508,-25.818 -8.724,-34.954c-0.955,-3.934 -3.637,-15.617 -17.723,-15.376c3.338,-0.938 6.38,-1.031 9.007,-0.652c4.891,0.707 8,3.385 9.561,4.642c10.953,8.821 6.295,32.201 8.182,38.364c0.121,0.78 0.274,1.556 0.466,2.323c0.044,0.177 -0.013,0.234 0.362,0.742l0.176,0.173c0,0 0.123,0.103 0.246,0.209c1.834,1.572 3.701,3.255 5.653,4.872Z" style="fill:#df5a42;fill-rule:nonzero;"/><path d="M231.823,122.722c-3.559,-2.646 -6.867,-5.7 -9.853,-9.188c3.814,2.291 7.569,4.149 11.259,5.628c-0.484,1.178 -0.954,2.365 -1.406,3.56Z" style="fill:#df5a42;"/></g></svg>